<?xml version="1.0" encoding="UTF-8"?><!DOCTYPE svg PUBLIC "-//W3C//DTD SVG 1.1//EN" "http://www.w3.org/Graphics/SVG/1.1/DTD/svg11.dtd">
<svg xmlns="http://www.w3.org/2000/svg" xmlns:xlink="http://www.w3.org/1999/xlink" viewBox="0 0 162.5 54.3">
<g>
	<g>
		<g>
			<g>

					<rect x="13.1" y="13.1" transform="matrix(0.7071 -0.7071 0.7071 0.7071 -7.7496 18.7112)" style="fill:#00B7FF;" width="11.2" height="11.2"></rect>
				<path style="fill:#00B7FF;" d="M18.7,27.9c-0.3,0-0.7-0.1-0.9-0.4l-7.9-7.9c-0.2-0.2-0.4-0.6-0.4-0.9c0-0.3,0.1-0.7,0.4-0.9
					l7.9-7.9c0.5-0.5,1.3-0.5,1.8,0l7.9,7.9c0.2,0.2,0.4,0.6,0.4,0.9c0,0.3-0.1,0.7-0.4,0.9l-7.9,7.9C19.4,27.8,19,27.9,18.7,27.9z
					 M12.6,18.7l6.1,6.1l6.1-6.1l-6.1-6.1L12.6,18.7z"></path>
			</g>
			<g>
				<path style="fill:#00B7FF;" d="M21.1,8.5l13.3,13.3L21,35.1h-3.1l13.3-13.3c0.2-0.2,0.3-0.5,0.3-0.7c0-0.3-0.1-0.5-0.3-0.7
					L28.8,18c-0.4-0.4-1.1-0.4-1.5,0l-7.9-7.9L21.1,8.5z"></path>
				<path style="fill:#00B7FF;" d="M21,36.4h-3.1c-0.5,0-1-0.3-1.2-0.8c-0.2-0.5-0.1-1,0.3-1.4l13.1-13.1l-2-2
					c-0.2,0.1-0.5,0.2-0.7,0.2h0c-0.3,0-0.7-0.1-0.9-0.4L18.5,11c-0.5-0.5-0.5-1.3,0-1.8l1.6-1.6c0.2-0.2,0.6-0.4,0.9-0.4
					c0,0,0,0,0,0c0.3,0,0.7,0.1,0.9,0.4l13.3,13.3c0.5,0.5,0.5,1.3,0,1.8L21.9,36C21.7,36.2,21.4,36.4,21,36.4z"></path>
			</g>
			<g>
				<path style="fill:#00B7FF;" d="M21.8,3.1l13.3,13.3v3.1L21.8,6.2c-0.4-0.4-1.1-0.4-1.5,0L18,8.6c-0.2,0.2-0.3,0.5-0.3,0.7
					c0,0.3,0.1,0.5,0.3,0.7L10.1,18l-1.6-1.6L21.8,3.1z"></path>
				<path style="fill:#00B7FF;" d="M35.1,20.8c-0.3,0-0.7-0.1-0.9-0.4L21.1,7.3l-2,2c0.3,0.5,0.3,1.2-0.2,1.6L11,18.9
					c-0.2,0.2-0.6,0.4-0.9,0.4c-0.3,0-0.7-0.1-0.9-0.4l-1.6-1.6c-0.2-0.2-0.4-0.6-0.4-0.9s0.1-0.7,0.4-0.9L20.9,2.2
					c0.5-0.5,1.3-0.5,1.8,0L36,15.5c0.2,0.2,0.4,0.6,0.4,0.9v3.1c0,0.5-0.3,1-0.8,1.2C35.4,20.8,35.3,20.8,35.1,20.8z"></path>
			</g>
			<g>
				<path style="fill:#00B7FF;" d="M2.3,17.9l13.3,13.3c0.2,0.2,0.5,0.3,0.7,0.3c0.3,0,0.5-0.1,0.7-0.3l2.3-2.3
					c0.2-0.2,0.3-0.5,0.3-0.7c0-0.3-0.1-0.5-0.3-0.7l7.9-7.9l1.6,1.6L15.7,34.3L2.3,21V17.9z"></path>
				<path style="fill:#00B7FF;" d="M15.7,35.6c-0.3,0-0.7-0.1-0.9-0.4L1.4,21.9C1.2,21.7,1,21.4,1,21v-3.1c0-0.5,0.3-1,0.8-1.2
					c0.5-0.2,1-0.1,1.4,0.3l13.1,13.1l2-2c-0.3-0.5-0.3-1.2,0.2-1.6l7.9-7.9c0.2-0.2,0.6-0.4,0.9-0.4c0,0,0,0,0,0
					c0.3,0,0.7,0.1,0.9,0.4l1.6,1.6c0.5,0.5,0.5,1.3,0,1.8L16.6,35.3C16.3,35.5,16,35.6,15.7,35.6z M18.5,27.9
					C18.5,27.9,18.5,27.9,18.5,27.9L18.5,27.9z"></path>
			</g>
			<g>
				<path style="fill:#00B7FF;" d="M16.4,2.3h3.1L6.2,15.6c-0.2,0.2-0.3,0.5-0.3,0.7c0,0.3,0.1,0.5,0.3,0.7l2.3,2.3
					c0.4,0.4,1.1,0.4,1.5,0v0l7.9,7.9l-1.6,1.6L3.1,15.7L16.4,2.3z"></path>
				<path style="fill:#00B7FF;" d="M16.4,30.2c-0.3,0-0.7-0.1-0.9-0.4L2.2,16.6c-0.2-0.2-0.4-0.6-0.4-0.9c0-0.3,0.1-0.7,0.4-0.9
					L15.5,1.4c0.2-0.2,0.6-0.4,0.9-0.4h3.1c0.5,0,1,0.3,1.2,0.8s0.1,1-0.3,1.4L7.3,16.4l2,2c0.1-0.1,0.2-0.1,0.2-0.1
					c0.5-0.2,1-0.1,1.4,0.3l7.9,7.9c0.5,0.5,0.5,1.3,0,1.8l-1.6,1.6C17,30.1,16.7,30.2,16.4,30.2z"></path>
			</g>
			<g>
				<path style="fill:#00B7FF;" d="M21,1.3c0,0,0.1,0,0.1,0c0,0,0,0,0.1,0c0,0,0,0,0,0c0,0,0.1,0,0.1,0c0,0,0,0,0.1,0
					c0.1,0,0.1,0.1,0.2,0.1c0,0,0.1,0,0.1,0.1c0,0,0,0,0,0c0.1,0.1,0.2,0.2,0.3,0.4c0.1,0.1,0.1,0.3,0.1,0.4c0,0.3-0.1,0.5-0.3,0.7
					L21,2.3h-1.5l0.7-0.7C20.5,1.4,20.8,1.3,21,1.3z"></path>
				<path style="fill:#00B7FF;" d="M21.8,4.4c-0.3,0-0.7-0.1-0.9-0.4l-0.4-0.4h-1c-0.5,0-1-0.3-1.2-0.8c-0.2-0.5-0.1-1,0.3-1.4
					l0.7-0.7C19.8,0.2,20.4,0,21,0c0.1,0,0.2,0,0.2,0c0,0,0.1,0,0.1,0c0.1,0,0.1,0,0.2,0c0.1,0,0.1,0,0.2,0.1c0,0,0,0,0,0
					c0,0,0.1,0,0.2,0.1c0.2,0.1,0.3,0.1,0.4,0.2c0,0,0.1,0.1,0.1,0.1c0.1,0,0.1,0.1,0.2,0.1c0.2,0.2,0.4,0.5,0.5,0.8
					c0.1,0.3,0.2,0.6,0.2,0.9c0,0.6-0.3,1.2-0.7,1.7C22.4,4.2,22.1,4.4,21.8,4.4z M21.3,2.8L21.3,2.8L21.3,2.8z M21.2,2.6
					C21.2,2.6,21.2,2.6,21.2,2.6C21.2,2.6,21.2,2.6,21.2,2.6z M21.1,2.6C21.1,2.6,21.1,2.6,21.1,2.6C21.1,2.6,21.1,2.6,21.1,2.6z"></path>
			</g>
			<g>
				<path style="fill:#00B7FF;" d="M21.1,1.3c0,0-0.1,0-0.1,0C21.1,1.3,21.1,1.3,21.1,1.3z"></path>
				<path style="fill:#00B7FF;" d="M21.1,2.6c-0.1,0-0.1,0-0.2,0c-0.7,0-1.3-0.6-1.3-1.3C19.7,0.6,20.3,0,21,0c0.1,0,0.2,0,0.3,0
					c0.6,0.1,1.1,0.6,1.1,1.3c0,0.1,0,0.1,0,0.2C22.3,2.1,21.8,2.6,21.1,2.6z"></path>
			</g>
			<g>
				<path style="fill:#00B7FF;" d="M21.2,1.3C21.2,1.3,21.2,1.3,21.2,1.3C21.2,1.3,21.2,1.3,21.2,1.3z"></path>
				<path style="fill:#00B7FF;" d="M21.2,2.6c-0.1,0-0.1,0-0.2,0c0,0,0,0,0,0c-0.6-0.1-1.2-0.6-1.2-1.3c0-0.7,0.6-1.3,1.3-1.3
					c0,0,0,0,0,0l0,0c0,0,0.1,0,0.1,0c0.1,0,0.1,0,0.2,0c0.7,0.1,1.2,0.7,1.1,1.4C22.4,2.1,21.9,2.6,21.2,2.6z M21.1,2.6L21.1,2.6
					L21.1,2.6L21.1,2.6z"></path>
			</g>
			<g>
				<path style="fill:#00B7FF;" d="M21.4,1.3c0,0-0.1,0-0.1,0C21.3,1.3,21.3,1.3,21.4,1.3z"></path>
				<path style="fill:#00B7FF;" d="M21.4,2.6c-0.1,0-0.3,0-0.4-0.1c-0.6-0.1-1-0.7-1-1.3c0-0.1,0-0.2,0-0.3c0.1-0.7,0.8-1.1,1.5-1
					c0.1,0,0.2,0,0.3,0.1c0.5,0.2,0.9,0.7,0.9,1.2c0,0.1,0,0.3-0.1,0.4C22.4,2.3,21.9,2.6,21.4,2.6z M21,2.6L21,2.6L21,2.6z
					 M20.9,2.6C20.9,2.6,20.9,2.6,20.9,2.6C20.9,2.6,20.9,2.6,20.9,2.6z"></path>
			</g>
			<g>
				<path style="fill:#00B7FF;" d="M21.4,1.4C21.4,1.4,21.4,1.4,21.4,1.4C21.4,1.4,21.4,1.4,21.4,1.4z"></path>
				<path style="fill:#00B7FF;" d="M21.4,2.7c-0.2,0-0.4,0-0.5-0.1c-0.5-0.2-0.8-0.7-0.8-1.2c0-0.1,0-0.3,0.1-0.4
					c0.2-0.7,1-1,1.7-0.8c0,0,0.1,0,0.2,0.1c0.5,0.2,0.7,0.7,0.7,1.2c0,0.2,0,0.4-0.1,0.6C22.4,2.4,21.9,2.7,21.4,2.7z"></path>
			</g>
			<g>
				<path style="fill:#00B7FF;" d="M21.7,1.6C21.7,1.5,21.7,1.5,21.7,1.6C21.7,1.5,21.7,1.5,21.7,1.6z"></path>
				<path style="fill:#00B7FF;" d="M21.7,2.8c-0.3,0-0.6-0.1-0.8-0.3c-0.6-0.4-0.7-1.2-0.3-1.7c0.4-0.6,1.1-0.8,1.7-0.4
					c0.1,0.1,0.2,0.2,0.3,0.3c0,0,0,0,0,0C22.9,0.9,23,1.2,23,1.5c0,0.3-0.1,0.7-0.4,0.9C22.4,2.7,22,2.8,21.7,2.8z M20.8,2.5
					C20.8,2.5,20.8,2.5,20.8,2.5C20.8,2.5,20.8,2.5,20.8,2.5z"></path>
			</g>
			<g>
				<path style="fill:#00B7FF;" d="M22.1,2.3c0-0.1,0-0.3-0.1-0.4c-0.1-0.1-0.1-0.3-0.3-0.4c0,0,0,0,0,0l14.1,14.1
					c0.2,0.2,0.3,0.5,0.3,0.7V21c0-0.3-0.1-0.5-0.3-0.7l-0.7-0.7v-3.1L21.8,3.1C22,2.9,22.1,2.6,22.1,2.3z"></path>
				<path style="fill:#00B7FF;" d="M36.1,22.3c-0.7,0-1.2-0.5-1.3-1.2l-0.7-0.7c-0.2-0.2-0.4-0.6-0.4-0.9v-2.6L20.9,4
					c-0.2-0.2-0.4-0.6-0.4-0.9c0-0.3,0.1-0.5,0.2-0.7c-0.4-0.5-0.4-1.1,0-1.6c0.4-0.5,1.2-0.6,1.8-0.2c0.1,0.1,0.1,0.1,0.2,0.1
					l14.1,14.1c0.4,0.4,0.7,1,0.7,1.7V21C37.4,21.7,36.8,22.3,36.1,22.3z M34.8,21L34.8,21L34.8,21z M20.9,2.5L20.9,2.5L20.9,2.5z"></path>
			</g>
			<g>
				<path style="fill:#00B7FF;" d="M19.5,2.3H21l-14,14l2.3,2.3l0,0l0.7,0.7v0c-0.4,0.4-1.1,0.4-1.5,0l-2.3-2.3
					c-0.2-0.2-0.3-0.5-0.3-0.7c0-0.3,0.1-0.5,0.3-0.7L19.5,2.3z"></path>
				<path style="fill:#00B7FF;" d="M9.3,21c-0.6,0-1.2-0.2-1.6-0.7L5.3,18c-0.4-0.4-0.7-1-0.7-1.7c0-0.6,0.2-1.2,0.7-1.7L18.6,1.4
					c0.2-0.2,0.6-0.4,0.9-0.4H21c0.5,0,1,0.3,1.2,0.8c0.2,0.5,0.1,1-0.3,1.4L8.8,16.4l1.4,1.4c0,0,0.1,0,0.1,0.1l0.7,0.7
					c0.2,0.2,0.4,0.6,0.4,0.9c0,0.3-0.1,0.7-0.4,0.9C10.5,20.8,9.9,21,9.3,21z"></path>
			</g>
			<g>
				<polygon style="fill:#00B7FF;" points="21,2.3 21.8,3.1 8.5,16.4 10.1,18 9.3,18.7 7,16.4 				"></polygon>
				<path style="fill:#00B7FF;" d="M9.3,20c-0.3,0-0.7-0.1-0.9-0.4l-2.3-2.3c-0.2-0.2-0.4-0.6-0.4-0.9c0-0.3,0.1-0.7,0.4-0.9l14-14
					c0.5-0.5,1.3-0.5,1.8,0l0.7,0.7c0.2,0.2,0.4,0.6,0.4,0.9c0,0.3-0.1,0.7-0.4,0.9L10.3,16.4l0.7,0.7c0.5,0.5,0.5,1.3,0,1.8
					l-0.7,0.7C10,19.9,9.7,20,9.3,20z"></path>
			</g>
			<g>
				<path style="fill:#00B7FF;" d="M20.3,6.2c0.4-0.4,1.1-0.4,1.5,0l13.3,13.3V21l-14-14l-2.3,2.3L18,10.1c-0.2-0.2-0.3-0.5-0.3-0.7
					c0-0.3,0.1-0.5,0.3-0.7L20.3,6.2z"></path>
				<path style="fill:#00B7FF;" d="M35.1,22.3c-0.3,0-0.7-0.1-0.9-0.4L21.1,8.8L18.9,11c-0.2,0.2-0.6,0.4-0.9,0.4h0
					c-0.3,0-0.7-0.1-0.9-0.4c-0.4-0.4-0.7-1-0.7-1.7c0-0.6,0.2-1.2,0.7-1.6l2.3-2.3c0,0,0,0,0,0c0.9-0.9,2.4-0.9,3.3,0L36,18.6
					c0.2,0.2,0.4,0.6,0.4,0.9V21c0,0.5-0.3,1-0.8,1.2C35.4,22.3,35.3,22.3,35.1,22.3z"></path>
			</g>
			<g>
				<polygon style="fill:#00B7FF;" points="21.1,7 35.1,21 34.3,21.8 21.1,8.5 19.5,10.1 18.7,9.3 				"></polygon>
				<path style="fill:#00B7FF;" d="M34.3,23.1c-0.3,0-0.7-0.1-0.9-0.4L21.1,10.3L20.4,11c-0.2,0.2-0.6,0.4-0.9,0.4h0
					c-0.3,0-0.7-0.1-0.9-0.4l-0.7-0.7c-0.2-0.2-0.4-0.6-0.4-0.9c0-0.3,0.1-0.7,0.4-0.9l2.3-2.3c0.5-0.5,1.3-0.5,1.8,0l14,14
					c0.2,0.2,0.4,0.6,0.4,0.9c0,0.3-0.1,0.7-0.4,0.9l-0.7,0.7C35,22.9,34.7,23,34.3,23.1z"></path>
			</g>
			<g>

					<rect x="18.2" y="9.5" transform="matrix(0.7071 -0.7071 0.7071 0.7071 -1.6425 16.1816)" style="fill:#00B7FF;" width="1.1" height="1.1"></rect>
				<path style="fill:#00B7FF;" d="M18.7,12.1c-0.3,0-0.7-0.1-0.9-0.4L17.1,11c-0.2-0.2-0.4-0.6-0.4-0.9c0-0.3,0.1-0.7,0.4-0.9
					l0.7-0.7c0.5-0.5,1.3-0.5,1.8,0l0.7,0.7c0.2,0.2,0.4,0.6,0.4,0.9c0,0.3-0.1,0.7-0.4,0.9l-0.7,0.7C19.4,12,19,12.1,18.7,12.1z"></path>
			</g>
			<g>

					<rect x="22.5" y="8.8" transform="matrix(0.7071 -0.7071 0.7071 0.7071 -3.4312 20.5)" style="fill:#00B7FF;" width="1" height="11.2"></rect>
				<path style="fill:#00B7FF;" d="M26.6,20c-0.3,0-0.7-0.1-0.9-0.4l-7.9-7.9c-0.2-0.2-0.4-0.6-0.4-0.9c0-0.3,0.1-0.7,0.4-0.9
					l0.7-0.7c0.2-0.2,0.6-0.4,0.9-0.4h0c0.3,0,0.7,0.1,0.9,0.4l7.9,7.9c0.5,0.5,0.5,1.3,0,1.8l-0.7,0.7C27.3,19.9,26.9,20,26.6,20z"></path>
			</g>
			<g>

					<rect x="8.8" y="13.9" transform="matrix(0.7071 -0.7071 0.7071 0.7071 -5.9616 14.3926)" style="fill:#00B7FF;" width="11.2" height="1.1"></rect>
				<path style="fill:#00B7FF;" d="M10.8,20L10.8,20c-0.3,0-0.7-0.1-0.9-0.4l-0.7-0.7c-0.5-0.5-0.5-1.3,0-1.8l7.9-7.9
					c0.5-0.5,1.3-0.5,1.8,0l0.7,0.7c0.2,0.2,0.4,0.6,0.4,0.9c0,0.3-0.1,0.7-0.4,0.9l-7.9,7.9C11.5,19.9,11.2,20,10.8,20z"></path>
			</g>
			<g>
				<path style="fill:#00B7FF;" d="M1.6,15.7L15.7,1.6c0.2-0.2,0.5-0.3,0.7-0.3H21c-0.3,0-0.5,0.1-0.7,0.3l-0.7,0.7h-3.1L3.1,15.7
					c-0.3-0.3-0.8-0.4-1.1-0.2C1.8,15.5,1.7,15.6,1.6,15.7C1.6,15.7,1.6,15.7,1.6,15.7z"></path>
				<path style="fill:#00B7FF;" d="M1.6,17c-0.3,0-0.6-0.1-0.8-0.3c-0.5-0.5-0.6-1.2-0.2-1.8c0.1-0.1,0.1-0.1,0.1-0.1c0,0,0,0,0,0
					L14.7,0.7c0.4-0.4,1-0.7,1.7-0.7H21c0.7,0,1.3,0.6,1.3,1.3c0,0.7-0.5,1.2-1.2,1.3l-0.7,0.7c-0.2,0.2-0.6,0.4-0.9,0.4h-2.6
					L4,16.6c-0.4,0.4-1.1,0.5-1.6,0.1C2.1,16.9,1.8,17,1.6,17z"></path>
			</g>
			<g>
				<polygon style="fill:#00B7FF;" points="3.1,15.7 16.4,28.9 18,27.3 18.7,28.1 16.4,30.4 2.3,16.4 				"></polygon>
				<path style="fill:#00B7FF;" d="M16.4,31.7c-0.3,0-0.7-0.1-0.9-0.4l-14-14C1.2,17.1,1,16.7,1,16.4c0-0.3,0.1-0.7,0.4-0.9l0.7-0.7
					c0.5-0.5,1.3-0.5,1.8,0l12.4,12.4l0.7-0.7c0.2-0.2,0.6-0.4,0.9-0.4c0.3,0,0.7,0.1,0.9,0.4l0.7,0.7c0.5,0.5,0.5,1.3,0,1.8
					l-2.3,2.3C17,31.6,16.7,31.7,16.4,31.7z"></path>
			</g>
			<g>
				<path style="fill:#00B7FF;" d="M1.6,15.7c-0.1,0.1-0.1,0.1-0.1,0.2C1.5,15.8,1.5,15.8,1.6,15.7z"></path>
				<path style="fill:#00B7FF;" d="M1.4,17.2c-0.2,0-0.4,0-0.6-0.1c-0.4-0.2-0.7-0.7-0.7-1.1c0-0.2,0-0.4,0.1-0.6
					c0.1-0.2,0.2-0.3,0.3-0.5c0.5-0.5,1.3-0.6,1.8-0.1c0.3,0.3,0.4,0.6,0.4,1c0,0.3-0.1,0.6-0.3,0.8C2.3,17,1.9,17.2,1.4,17.2z"></path>
			</g>
			<g>
				<path style="fill:#00B7FF;" d="M1.4,15.9C1.4,15.9,1.4,16,1.4,15.9C1.4,16,1.4,15.9,1.4,15.9z"></path>
				<path style="fill:#00B7FF;" d="M1.4,17.3c-0.1,0-0.3,0-0.4-0.1c-0.7-0.2-1-1-0.8-1.6c0.1-0.2,0.1-0.3,0.2-0.4c0,0,0,0,0,0
					c0,0,0,0,0,0c0,0,0,0,0,0c0.4-0.6,1.3-0.6,1.8-0.2c0.3,0.3,0.5,0.6,0.5,1c0,0.2,0,0.4-0.1,0.6C2.3,17,1.9,17.3,1.4,17.3z
					 M2.4,16.7C2.4,16.7,2.4,16.7,2.4,16.7C2.4,16.7,2.4,16.7,2.4,16.7L2.4,16.7L2.4,16.7L2.4,16.7z M2.4,16.7L2.4,16.7L2.4,16.7z"></path>
			</g>
			<g>
				<path style="fill:#00B7FF;" d="M1.3,16.2C1.3,16.2,1.3,16.3,1.3,16.2C1.3,16.3,1.3,16.2,1.3,16.2z"></path>
				<path style="fill:#00B7FF;" d="M1.3,17.6c0,0-0.1,0-0.1,0C0.5,17.5,0,16.9,0,16.3c0-0.2,0-0.3,0.1-0.5l0,0c0,0,0,0,0,0
					c0,0,0,0,0,0c0.2-0.7,1-1,1.6-0.8c0.5,0.2,0.9,0.7,0.9,1.2c0,0.1,0,0.2,0,0.2c0,0,0,0,0,0C2.5,17.1,1.9,17.6,1.3,17.6z
					 M2.5,16.6L2.5,16.6L2.5,16.6z M2.5,16.6C2.5,16.6,2.5,16.6,2.5,16.6C2.5,16.6,2.5,16.6,2.5,16.6z"></path>
			</g>
			<g>
				<path style="fill:#00B7FF;" d="M1.3,16.3C1.3,16.3,1.3,16.3,1.3,16.3C1.3,16.3,1.3,16.3,1.3,16.3z"></path>
				<path style="fill:#00B7FF;" d="M1.3,17.6c-0.6,0-1.2-0.4-1.3-1.1c0-0.1,0-0.2,0-0.2c0-0.1,0-0.2,0-0.3c0.1-0.7,0.8-1.2,1.5-1
					c0.6,0.1,1,0.7,1,1.3c0,0,0,0.1,0,0.1c0,0.6-0.5,1.1-1.1,1.2C1.4,17.6,1.4,17.6,1.3,17.6z M2.6,16.5L2.6,16.5L2.6,16.5z"></path>
			</g>
			<g>
				<path style="fill:#00B7FF;" d="M1.3,16.3C1.3,16.3,1.3,16.3,1.3,16.3c0-0.1,0-0.1,0-0.1c0-0.1,0-0.2,0.1-0.2c0,0,0,0,0,0
					c0,0,0,0,0,0c0-0.1,0.1-0.1,0.1-0.2c0.1-0.1,0.2-0.2,0.4-0.3c0.4-0.2,0.8-0.1,1.1,0.2l-0.7,0.7v1.5l-0.7-0.7
					C1.4,16.9,1.3,16.7,1.3,16.3C1.3,16.4,1.3,16.3,1.3,16.3z"></path>
				<path style="fill:#00B7FF;" d="M2.3,19.2c-0.3,0-0.7-0.1-0.9-0.4l-0.7-0.7C0.2,17.6,0,17,0,16.4c0,0,0-0.1,0-0.2
					c0-0.1,0-0.1,0-0.2c0,0,0-0.1,0-0.1c0-0.2,0.1-0.3,0.1-0.5c0,0,0-0.1,0.1-0.1c0,0,0-0.1,0-0.1c0.1-0.2,0.2-0.3,0.3-0.4
					c0.2-0.2,0.5-0.5,0.8-0.6c0.9-0.4,1.9-0.2,2.6,0.5c0.2,0.2,0.4,0.6,0.4,0.9c0,0.3-0.1,0.7-0.4,0.9l-0.4,0.4v0.9
					c0,0.5-0.3,1-0.8,1.2C2.7,19.1,2.5,19.2,2.3,19.2z"></path>
			</g>
			<g>
				<path style="fill:#00B7FF;" d="M2.3,16.4l14,14l2.3-2.3l0.7-0.7c0.2,0.2,0.3,0.5,0.3,0.7c0,0.3-0.1,0.5-0.3,0.7l-2.3,2.3
					c-0.2,0.2-0.5,0.3-0.7,0.3c-0.3,0-0.5-0.1-0.7-0.3L2.3,17.9V16.4z"></path>
				<path style="fill:#00B7FF;" d="M16.4,32.8c-0.6,0-1.2-0.2-1.7-0.7L1.4,18.8C1.2,18.6,1,18.2,1,17.9v-1.5c0-0.5,0.3-1,0.8-1.2
					c0.5-0.2,1-0.1,1.4,0.3l13.1,13.1l2.2-2.2c0.2-0.2,0.6-0.4,0.9-0.4c0.3,0,0.7,0.1,0.9,0.4c0.4,0.4,0.7,1,0.7,1.7
					c0,0.6-0.2,1.2-0.7,1.7L18,32.1C17.6,32.5,17,32.8,16.4,32.8z M18.5,27.9C18.5,27.9,18.5,27.9,18.5,27.9L18.5,27.9z"></path>
			</g>
			<g>
				<path style="fill:#00B7FF;" d="M27.3,18c0.4-0.4,1.1-0.4,1.5,0l2.3,2.3c0.2,0.2,0.3,0.5,0.3,0.7c0,0.3-0.1,0.5-0.3,0.7
					L17.9,35.1h-1.5l14-14h0l-2.3-2.3L27.3,18z"></path>
				<path style="fill:#00B7FF;" d="M17.9,36.4h-1.5c-0.5,0-1-0.3-1.2-0.8c-0.2-0.5-0.1-1,0.3-1.4l13.1-13.1l-2.2-2.2
					c-0.2-0.2-0.4-0.6-0.4-0.9c0-0.3,0.1-0.7,0.4-0.9c0.4-0.4,1-0.7,1.7-0.7s1.2,0.2,1.7,0.7l2.3,2.3c0.4,0.4,0.7,1,0.7,1.7
					c0,0.6-0.2,1.2-0.7,1.7L18.8,36C18.6,36.2,18.2,36.4,17.9,36.4z"></path>
			</g>
			<g>

					<rect x="9.6" y="18.2" transform="matrix(0.7071 -0.7071 0.7071 0.7071 -10.2794 12.6036)" style="fill:#00B7FF;" width="1" height="1"></rect>
				<path style="fill:#00B7FF;" d="M10.1,20.7C10.1,20.7,10.1,20.7,10.1,20.7c-0.3,0-0.7-0.1-0.9-0.4l-0.7-0.7
					c-0.5-0.5-0.5-1.3,0-1.8l0.7-0.7c0.2-0.2,0.6-0.4,0.9-0.4l0,0c0.3,0,0.7,0.1,0.9,0.4l0.7,0.7c0.2,0.2,0.4,0.6,0.4,0.9
					c0,0.3-0.1,0.7-0.4,0.9L11,20.4C10.7,20.6,10.4,20.7,10.1,20.7z"></path>
			</g>
			<g>

					<rect x="26.8" y="18.2" transform="matrix(0.7071 -0.7071 0.7071 0.7071 -5.2199 24.8183)" style="fill:#00B7FF;" width="1" height="1.1"></rect>
				<path style="fill:#00B7FF;" d="M27.3,20.7L27.3,20.7c-0.3,0-0.7-0.1-0.9-0.4l-0.7-0.7c-0.5-0.5-0.5-1.3,0-1.8l0.7-0.7
					c0.2-0.2,0.6-0.4,0.9-0.4c0.3,0,0.7,0.1,0.9,0.4l0.7,0.7c0.2,0.2,0.4,0.6,0.4,0.9c0,0.3-0.1,0.7-0.4,0.9l-0.7,0.7
					C28,20.6,27.7,20.7,27.3,20.7z"></path>
			</g>
			<g>
				<polygon style="fill:#00B7FF;" points="26.6,18.7 27.3,19.5 19.5,27.3 19.5,27.3 18.7,26.6 				"></polygon>
				<path style="fill:#00B7FF;" d="M19.5,28.6c-0.2,0-0.3,0-0.5-0.1c-0.2-0.1-0.3-0.2-0.5-0.3l-0.7-0.7c-0.5-0.5-0.5-1.3,0-1.8
					l7.9-7.9c0.2-0.2,0.6-0.4,0.9-0.4l0,0c0.3,0,0.7,0.1,0.9,0.4l0.7,0.7c0.5,0.5,0.5,1.3,0,1.8l-7.9,7.9
					C20.1,28.5,19.8,28.6,19.5,28.6z"></path>
			</g>
			<g>

					<rect x="13.9" y="17.4" transform="matrix(0.7085 -0.7057 0.7057 0.7085 -12.0559 16.8692)" style="fill:#00B7FF;" width="1" height="11.2"></rect>
				<path style="fill:#00B7FF;" d="M18,28.6c-0.3,0-0.7-0.1-0.9-0.4l-7.9-7.9c-0.2-0.2-0.4-0.6-0.4-0.9c0-0.3,0.1-0.7,0.4-0.9
					l0.7-0.7c0.5-0.5,1.3-0.5,1.8,0l7.9,7.9c0.2,0.2,0.4,0.6,0.4,0.9c0,0.3-0.1,0.7-0.4,0.9l-0.7,0.7C18.6,28.5,18.3,28.6,18,28.6z"></path>
			</g>
			<g>
				<polygon style="fill:#00B7FF;" points="28.1,18.7 30.4,21.1 16.4,35.1 15.7,34.3 28.9,21.1 27.3,19.5 				"></polygon>
				<path style="fill:#00B7FF;" d="M16.4,36.4c-0.3,0-0.7-0.1-0.9-0.4l-0.7-0.7c-0.5-0.5-0.5-1.3,0-1.8l12.4-12.4l-0.7-0.7
					c-0.5-0.5-0.5-1.3,0-1.8l0.7-0.7c0.5-0.5,1.3-0.5,1.8,0l2.3,2.3c0.5,0.5,0.5,1.3,0,1.8l-14,14C17.1,36.2,16.7,36.4,16.4,36.4z"></path>
			</g>
			<g>
				<path style="fill:#00B7FF;" d="M35.1,19.5l0.7,0.7c0.2,0.2,0.3,0.5,0.3,0.7c0,0,0,0.1,0,0.1c0,0.1,0,0.1,0,0.1c0,0,0,0,0,0.1
					c0,0.1,0,0.1-0.1,0.1c0,0,0,0,0,0.1c0,0.1-0.1,0.1-0.1,0.2c0,0,0,0,0,0c0,0,0,0,0,0c-0.1,0.1-0.2,0.2-0.3,0.2
					c-0.4,0.2-0.8,0.1-1.1-0.2l0.7-0.7V19.5z"></path>
				<path style="fill:#00B7FF;" d="M35.1,23.4c-0.6,0-1.2-0.2-1.7-0.7c-0.5-0.5-0.5-1.3,0-1.8l0.4-0.4v-0.9c0-0.5,0.3-1,0.8-1.2
					c0.5-0.2,1-0.1,1.4,0.3l0.7,0.7c0.4,0.4,0.7,1,0.7,1.7c0,0.1,0,0.2,0,0.2c0,0.1,0,0.2-0.1,0.4c0,0,0,0,0,0c0,0,0,0,0,0.1
					c0,0,0,0,0,0c0,0.1-0.1,0.2-0.1,0.3c0,0.1-0.1,0.1-0.1,0.2c-0.1,0.1-0.2,0.3-0.3,0.4c0,0,0,0,0,0c0,0-0.1,0.1-0.1,0.1
					c-0.2,0.2-0.5,0.4-0.7,0.5C35.7,23.3,35.4,23.4,35.1,23.4z M34.7,21.2C34.7,21.2,34.7,21.2,34.7,21.2
					C34.7,21.2,34.7,21.2,34.7,21.2z M34.7,21.2C34.7,21.2,34.7,21.2,34.7,21.2C34.7,21.2,34.7,21.2,34.7,21.2z M34.7,21.2
					C34.7,21.2,34.7,21.2,34.7,21.2C34.7,21.2,34.7,21.2,34.7,21.2z M35.1,21L35.1,21L35.1,21z"></path>
			</g>
			<g>
				<path style="fill:#00B7FF;" d="M36.1,21.1c0,0,0-0.1,0-0.1C36.1,21.1,36.1,21.1,36.1,21.1z"></path>
				<path style="fill:#00B7FF;" d="M36.1,22.4c0,0-0.1,0-0.1,0c-0.7-0.1-1.2-0.6-1.2-1.3c0,0,0-0.1,0-0.1c0,0,0,0,0,0l0,0
					c0-0.7,0.6-1.3,1.3-1.3c0.7,0,1.3,0.6,1.3,1.3c0,0.1,0,0.2,0,0.2C37.4,21.9,36.8,22.4,36.1,22.4z M34.8,21
					C34.8,21,34.8,21,34.8,21C34.8,21,34.8,21,34.8,21z"></path>
			</g>
			<g>
				<path style="fill:#00B7FF;" d="M36.1,21.3C36.1,21.3,36.1,21.3,36.1,21.3C36.1,21.3,36.1,21.3,36.1,21.3z"></path>
				<path style="fill:#00B7FF;" d="M36.1,22.6c-0.2,0-0.3,0-0.5-0.1c-0.6-0.2-1-0.9-0.8-1.6c0,0,0,0,0-0.1c0,0,0-0.1,0-0.1
					c0.2-0.6,0.9-1,1.6-0.8c0.7,0.2,1.1,0.9,0.9,1.6c0,0.1,0,0.2-0.1,0.3C37,22.4,36.6,22.6,36.1,22.6z M37.3,21.6
					C37.3,21.6,37.3,21.6,37.3,21.6C37.3,21.6,37.3,21.6,37.3,21.6L37.3,21.6z"></path>
			</g>
			<g>
				<path style="fill:#00B7FF;" d="M36,21.5C36,21.5,36,21.5,36,21.5C36,21.5,36,21.5,36,21.5z"></path>
				<path style="fill:#00B7FF;" d="M36,22.8c-0.3,0-0.5-0.1-0.7-0.2c-0.4-0.3-0.5-0.6-0.5-1.1c0-0.2,0.1-0.4,0.2-0.6
					c0.3-0.6,1-0.9,1.6-0.6c0.5,0.2,0.8,0.7,0.8,1.2c0,0.2,0,0.3-0.1,0.5c0,0.1-0.1,0.3-0.2,0.4C36.8,22.6,36.4,22.8,36,22.8z
					 M34.8,21C34.8,21,34.8,21,34.8,21C34.8,21,34.8,21,34.8,21z M34.9,20.8C34.9,20.8,34.9,20.8,34.9,20.8
					C34.9,20.8,34.9,20.8,34.9,20.8z"></path>
			</g>
			<g>
				<path style="fill:#00B7FF;" d="M35.9,21.7c0-0.1,0.1-0.1,0.1-0.2C36,21.6,35.9,21.7,35.9,21.7z"></path>
				<path style="fill:#00B7FF;" d="M35.9,23c-0.3,0-0.6-0.1-0.9-0.3c-0.3-0.3-0.4-0.6-0.4-1c0-0.3,0.1-0.6,0.3-0.8
					c0.3-0.6,1.1-0.8,1.7-0.5c0.4,0.2,0.7,0.7,0.7,1.1c0,0.2,0,0.4-0.1,0.6c-0.1,0.2-0.2,0.3-0.3,0.4C36.6,22.8,36.2,23,35.9,23z"></path>
			</g>
			<g>
				<path style="fill:#00B7FF;" d="M35.8,21.7C35.9,21.7,35.9,21.7,35.8,21.7C35.9,21.7,35.9,21.7,35.8,21.7z"></path>
				<path style="fill:#00B7FF;" d="M35.8,23c-0.3,0-0.7-0.1-0.9-0.4c-0.3-0.3-0.4-0.6-0.4-0.9c0-0.3,0.1-0.6,0.4-0.9
					c0,0,0,0,0.1-0.1c0.5-0.5,1.3-0.5,1.8-0.1c0.5,0.5,0.6,1.2,0.1,1.8c0,0.1-0.1,0.1-0.1,0.1C36.5,22.9,36.2,23,35.8,23z
					 M35.5,21.4L35.5,21.4l-0.5-0.5c0,0,0,0,0,0L35.5,21.4z M34.9,20.8C34.9,20.8,34.9,20.8,34.9,20.8
					C34.9,20.8,34.9,20.8,34.9,20.8z M34.9,20.8C34.9,20.8,34.9,20.8,34.9,20.8C34.9,20.8,34.9,20.8,34.9,20.8z"></path>
			</g>
			<g>
				<path style="fill:#00B7FF;" d="M35.8,21.8L21.8,35.8c-0.2,0.2-0.5,0.3-0.7,0.3l-4.6,0c0.3,0,0.5-0.1,0.7-0.3l0.7-0.7H21
					l13.3-13.3c0.3,0.3,0.8,0.4,1.1,0.2C35.6,21.9,35.7,21.9,35.8,21.8z"></path>
				<path style="fill:#00B7FF;" d="M21,37.4l-4.6,0c-0.7,0-1.3-0.6-1.3-1.3c0-0.7,0.5-1.2,1.2-1.3l0.7-0.7c0.2-0.2,0.6-0.4,0.9-0.4
					h2.6l12.9-12.9c0.2-0.2,0.6-0.4,0.9-0.4c0,0,0,0,0,0c0.3,0,0.5,0.1,0.7,0.2c0.5-0.4,1.2-0.3,1.6,0.1c0.5,0.5,0.5,1.3,0,1.8
					c0,0,0,0,0,0l-14,14c0,0,0,0,0,0C22.2,37.2,21.6,37.4,21,37.4z"></path>
			</g>
			<g>
				<polygon style="fill:#00B7FF;" points="18.7,26.6 19.5,27.3 19.5,27.3 18.7,28.1 18,27.3 				"></polygon>
				<path style="fill:#00B7FF;" d="M18.7,29.4c-0.3,0-0.7-0.1-0.9-0.4l-0.7-0.7c-0.2-0.2-0.4-0.6-0.4-0.9c0-0.3,0.1-0.7,0.4-0.9
					l0.7-0.7c0.2-0.2,0.6-0.4,0.9-0.4h0c0.3,0,0.7,0.1,0.9,0.4l0.7,0.7c0.2,0.2,0.4,0.6,0.4,0.9c0,0.3-0.1,0.7-0.4,0.9L19.6,29
					C19.4,29.2,19.1,29.4,18.7,29.4z"></path>
			</g>
			<g>
				<path style="fill:#00B7FF;" d="M15.7,34.3l0.7,0.7h1.5l-0.7,0.7c-0.2,0.2-0.5,0.3-0.7,0.3c0,0-0.1,0-0.1,0c0,0,0,0-0.1,0
					c0,0,0,0-0.1,0c0,0-0.1,0-0.1,0c0,0,0,0,0,0c-0.1,0-0.1-0.1-0.2-0.1c0,0-0.1-0.1-0.1-0.1c0,0,0,0,0,0c-0.1-0.1-0.2-0.2-0.3-0.4
					c-0.1-0.1-0.1-0.3-0.1-0.4C15.3,34.8,15.5,34.5,15.7,34.3z"></path>
				<path style="fill:#00B7FF;" d="M16.4,37.4c-0.1,0-0.1,0-0.2,0c-0.1,0-0.1,0-0.2,0c0,0-0.1,0-0.2,0c-0.1,0-0.2,0-0.3-0.1
					c0,0-0.1,0-0.1,0c-0.1-0.1-0.2-0.1-0.4-0.2c0,0,0,0,0,0c-0.1,0-0.1-0.1-0.2-0.2c0,0-0.1-0.1-0.1-0.1l0,0
					c-0.2-0.2-0.4-0.5-0.6-0.8c-0.1-0.3-0.2-0.6-0.2-0.9c0-0.6,0.2-1.2,0.7-1.7c0.5-0.5,1.3-0.5,1.8,0l0.4,0.4h1
					c0.5,0,1,0.3,1.2,0.8c0.2,0.5,0.1,1-0.3,1.4l-0.7,0.7C17.6,37.2,17,37.4,16.4,37.4z M16.3,34.8L16.3,34.8L16.3,34.8z"></path>
			</g>
			<g>
				<path style="fill:#00B7FF;" d="M15.7,35.8L1.6,21.8c-0.2-0.2-0.3-0.5-0.3-0.7v-4.6c0,0.3,0.1,0.5,0.3,0.7l0.7,0.7V21l13.3,13.3
					c-0.2,0.2-0.3,0.5-0.3,0.7c0,0.1,0,0.3,0.1,0.4C15.5,35.6,15.6,35.8,15.7,35.8C15.7,35.8,15.7,35.8,15.7,35.8z"></path>
				<path style="fill:#00B7FF;" d="M15.7,37.1c-0.3,0-0.5-0.1-0.8-0.3c-0.1-0.1-0.1-0.1-0.2-0.1l0,0L0.7,22.7C0.3,22.2,0,21.6,0,21
					v-4.6c0-0.7,0.6-1.3,1.3-1.3c0.7,0,1.2,0.5,1.3,1.2L3.2,17c0.2,0.2,0.4,0.6,0.4,0.9v2.6l12.9,12.9c0.2,0.2,0.4,0.6,0.4,0.9
					c0,0.3-0.1,0.5-0.2,0.7c0.4,0.5,0.4,1.1,0,1.6C16.4,37,16.1,37.1,15.7,37.1z M15.9,35.6L15.9,35.6l0.7-0.7c0,0,0,0,0,0
					L15.9,35.6z"></path>
			</g>
			<g>
				<path style="fill:#00B7FF;" d="M15.7,35.9c0,0,0.1,0.1,0.1,0.1C15.8,35.9,15.7,35.9,15.7,35.9z"></path>
				<path style="fill:#00B7FF;" d="M15.8,37.2c-0.2,0-0.4-0.1-0.6-0.2c-0.1-0.1-0.2-0.2-0.3-0.2c0,0,0,0,0,0
					c-0.5-0.5-0.6-1.3-0.2-1.8c0.4-0.5,1.1-0.6,1.6-0.3l0,0l0,0c0.1,0,0.1,0.1,0.2,0.1c0,0,0,0,0,0c0.6,0.4,0.7,1.2,0.4,1.7
					C16.7,37,16.2,37.2,15.8,37.2z"></path>
			</g>
			<g>
				<path style="fill:#00B7FF;" d="M16,36.1c-0.1,0-0.1-0.1-0.2-0.1C15.9,36,15.9,36,16,36.1z"></path>
				<path style="fill:#00B7FF;" d="M16,37.3c-0.1,0-0.3,0-0.4-0.1c-0.2-0.1-0.3-0.1-0.5-0.3c-0.6-0.4-0.7-1.2-0.3-1.8
					c0.4-0.6,1.2-0.7,1.8-0.4c0,0,0,0,0,0c0.6,0.3,0.9,1,0.7,1.7C17,37,16.5,37.3,16,37.3z M16.4,34.8l-0.2,0.4l0.3-0.4
					C16.5,34.9,16.5,34.9,16.4,34.8z"></path>
			</g>
			<g>
				<path style="fill:#00B7FF;" d="M16,36.1c0,0,0.1,0,0.1,0C16.1,36.1,16.1,36.1,16,36.1z"></path>
				<path style="fill:#00B7FF;" d="M16.2,37.4c-0.1,0-0.2,0-0.2,0c-0.1,0-0.2-0.1-0.4-0.1c-0.5-0.2-0.8-0.7-0.8-1.2
					c0-0.2,0-0.3,0.1-0.5c0.3-0.6,1-1,1.6-0.7l0,0c0.7,0.2,1.1,0.8,0.9,1.5C17.3,37,16.8,37.4,16.2,37.4z M16.5,34.9
					C16.5,34.9,16.5,34.9,16.5,34.9C16.5,34.9,16.5,34.9,16.5,34.9z"></path>
			</g>
			<g>
				<path style="fill:#00B7FF;" d="M16.2,36.1C16.2,36.1,16.2,36.1,16.2,36.1C16.2,36.1,16.2,36.1,16.2,36.1z"></path>
				<path style="fill:#00B7FF;" d="M16.2,37.4c-0.1,0-0.1,0-0.2,0c-0.1,0-0.1,0-0.2,0c-0.6-0.1-1-0.7-1-1.2c0-0.1,0-0.2,0-0.3
					c0.2-0.7,0.8-1.1,1.5-0.9c0.6,0.1,1.1,0.6,1.1,1.3c0,0.1,0,0.1,0,0.2C17.4,36.9,16.9,37.4,16.2,37.4z M16.5,34.9
					C16.5,34.9,16.5,34.9,16.5,34.9C16.5,34.9,16.5,34.9,16.5,34.9z M16.5,34.9L16.5,34.9L16.5,34.9z M16.5,34.9
					C16.5,34.9,16.5,34.9,16.5,34.9C16.5,34.9,16.5,34.9,16.5,34.9z"></path>
			</g>
			<g>
				<path style="fill:#00B7FF;" d="M16.3,36.1c0,0,0.1,0,0.1,0C16.4,36.1,16.3,36.1,16.3,36.1z"></path>
				<path style="fill:#00B7FF;" d="M16.4,37.4c-0.1,0-0.2,0-0.2,0c-0.7-0.1-1.2-0.6-1.2-1.3c0,0,0-0.1,0-0.1
					c0.1-0.7,0.7-1.2,1.4-1.2l0,0c0.7,0,1.3,0.6,1.3,1.3C17.7,36.8,17.1,37.4,16.4,37.4z M16.4,34.8C16.4,34.8,16.4,34.8,16.4,34.8
					C16.4,34.8,16.4,34.8,16.4,34.8z"></path>
			</g>
		</g>
	</g>
	<g>
		<path style="fill:#00B7FF;" d="M59.4,18.7c0-6.3,2.9-9.3,7.9-9.3c4.4,0,7.6,2.5,7.6,7.6v17c0,0.7-0.5,1.2-1.2,1.2
			c-0.7,0-1.2-0.5-1.2-1.2v-8.6c-0.9,1.2-2.8,2.5-5.3,2.5C62.2,28,59.4,25.1,59.4,18.7z M72.5,17c0-3.7-2.1-5.4-5.1-5.4
			c-3.6,0-5.5,2.2-5.5,7.1c0,4.8,1.9,7,5.5,7c3.6,0,5.1-3.4,5.1-3.4V17z"></path>
		<path style="fill:#00B7FF;" d="M81.6,10.8V21c0,2.5,0.8,4.7,4.7,4.7c3.9,0,4.7-2.2,4.7-4.7V10.8c0-0.7,0.6-1.2,1.3-1.2
			c0.7,0,1.2,0.5,1.2,1.2V21c0,3.7-1.2,7-7.2,7c-6,0-7.2-3.4-7.2-7V10.8c0-0.7,0.5-1.2,1.2-1.2C81.1,9.6,81.6,10.1,81.6,10.8z"></path>
		<path style="fill:#00B7FF;" d="M100.2,13.7c-0.4,0.4-0.7,0.5-1,0.5c-0.6,0-1.1-0.5-1.1-1.1c0-0.3,0.1-0.5,0.2-0.7
			c1.1-1.7,3.2-3.1,6.4-3.1c4.5,0,7,2.6,7,6.6v10.6c0,0.7-0.5,1.2-1.2,1.2c-0.7,0-1.2-0.5-1.2-1.2v-1.4c-1,1.8-3.2,2.8-5.5,2.8
			c-4.1,0-6.7-2-6.7-5.5c0-3.4,2.6-5.5,6.8-5.5h5.5v-1c0-2.6-1.7-4.3-4.6-4.3C102.6,11.7,101.4,12.3,100.2,13.7z M109.2,20.8v-1.6
			h-5.5c-2.5,0-4.3,1-4.3,3.3c0,2,1.4,3.3,4.4,3.3C106.7,25.8,109.2,24.1,109.2,20.8z"></path>
		<path style="fill:#00B7FF;" d="M117.3,5.9c0-0.7,0.6-1.2,1.2-1.2c0.7,0,1.2,0.6,1.2,1.2v3.5h2.5c0.7,0,1.2,0.5,1.2,1.2
			c0,0.7-0.5,1.2-1.2,1.2h-2.5v11.2c0,1.7,0.9,2.6,2.2,2.6c0.7,0,1.2,0.5,1.2,1.2c0,0.7-0.5,1.2-1.2,1.2c-3.1,0-4.7-2.1-4.7-4.9
			V11.7h-1.5c-0.7,0-1.2-0.5-1.2-1.2c0-0.7,0.5-1.2,1.2-1.2h1.5V5.9z"></path>
		<path style="fill:#00B7FF;" d="M129.5,26.6c0,0.7-0.5,1.2-1.2,1.2s-1.2-0.5-1.2-1.2V5.9c0-0.7,0.5-1.2,1.2-1.2s1.2,0.5,1.2,1.2
			V26.6z"></path>
		<path style="fill:#00B7FF;" d="M153.7,16.4c0,7.9-3.9,11.6-10.1,11.6c-6.2,0-10.1-3.7-10.1-11.6s3.9-11.6,10.1-11.6
			C149.8,4.8,153.7,8.5,153.7,16.4z M151.1,16.4c0-6.6-2.8-9.5-7.6-9.5s-7.6,2.9-7.6,9.5c0,6.7,2.8,9.6,7.6,9.6
			S151.1,23.1,151.1,16.4z"></path>
	</g>
	<g>
		<path style="fill:#00B7FF;" d="M158.1,4.7c0.2,0,0.4,0.2,0.4,0.4c0,0.2-0.1,0.4-0.4,0.4h-0.9v2.8c0,0.2-0.2,0.4-0.4,0.4
			c-0.2,0-0.4-0.2-0.4-0.4V5.4h-0.9c-0.2,0-0.4-0.2-0.4-0.4c0-0.2,0.1-0.4,0.4-0.4H158.1z M160.5,7.6l-0.7-1.2v1.8
			c0,0.2-0.2,0.4-0.4,0.4c-0.2,0-0.4-0.2-0.4-0.4V5c0-0.2,0.2-0.4,0.4-0.4c0.2,0,0.3,0.1,0.4,0.2l1,1.8l1-1.8c0-0.1,0.1-0.2,0.4-0.2
			c0.2,0,0.4,0.2,0.4,0.4v3.2c0,0.2-0.2,0.4-0.4,0.4c-0.2,0-0.4-0.2-0.4-0.4V6.4l-0.7,1.2c-0.1,0.1-0.2,0.2-0.3,0.2
			C160.6,7.7,160.5,7.7,160.5,7.6z"></path>
	</g>
	<path style="fill:#00B7FF;" d="M51.4,19.9c-0.3,0-0.7-0.1-0.9-0.4l-7.2-8.1C42.9,11,42.8,10.5,43,10c0.2-0.4,0.6-0.7,1.1-0.7h12.1
		c0.7,0,1.2,0.5,1.2,1.2c0,0.7-0.5,1.2-1.2,1.2h-9.4l5.4,6.1c0.5,0.5,0.4,1.3-0.1,1.7C52,19.8,51.7,19.9,51.4,19.9z"></path>
	<path style="fill:#00B7FF;" d="M56.2,28H44.1c-0.5,0-0.9-0.3-1.1-0.7c-0.2-0.4-0.1-1,0.2-1.3l7.2-8.1c0.5-0.5,1.2-0.6,1.7-0.1
		c0.5,0.5,0.6,1.2,0.1,1.7l-5.4,6.1h9.4c0.7,0,1.2,0.5,1.2,1.2S56.9,28,56.2,28z"></path>
	<g>
		<g>

				<rect x="13.1" y="13.1" transform="matrix(0.7071 -0.7071 0.7071 0.7071 -7.7496 18.7112)" style="fill:#F2F2F2;" width="11.2" height="11.2"></rect>
			<path style="fill:#F2F2F2;" d="M21.1,8.5l13.3,13.3L21,35.1h-3.1l13.3-13.3c0.2-0.2,0.3-0.5,0.3-0.7c0-0.3-0.1-0.5-0.3-0.7
				L28.8,18c-0.4-0.4-1.1-0.4-1.5,0l-7.9-7.9L21.1,8.5z"></path>
			<path style="fill:#F2F2F2;" d="M21.8,3.1l13.3,13.3v3.1L21.8,6.2c-0.4-0.4-1.1-0.4-1.5,0L18,8.6c-0.2,0.2-0.3,0.5-0.3,0.7
				c0,0.3,0.1,0.5,0.3,0.7L10.1,18l-1.6-1.6L21.8,3.1z"></path>
			<path style="fill:#F2F2F2;" d="M2.3,17.9l13.3,13.3c0.2,0.2,0.5,0.3,0.7,0.3c0.3,0,0.5-0.1,0.7-0.3l2.3-2.3
				c0.2-0.2,0.3-0.5,0.3-0.7c0-0.3-0.1-0.5-0.3-0.7l7.9-7.9l1.6,1.6L15.7,34.3L2.3,21V17.9z"></path>
			<path style="fill:#F2F2F2;" d="M16.4,2.3h3.1L6.2,15.6c-0.2,0.2-0.3,0.5-0.3,0.7c0,0.3,0.1,0.5,0.3,0.7l2.3,2.3
				c0.4,0.4,1.1,0.4,1.5,0v0l7.9,7.9l-1.6,1.6L3.1,15.7L16.4,2.3z"></path>
			<path style="fill:#00B7FF;" d="M21,1.3c0,0,0.1,0,0.1,0c0,0,0,0,0.1,0c0,0,0,0,0,0c0,0,0.1,0,0.1,0c0,0,0,0,0.1,0
				c0.1,0,0.1,0.1,0.2,0.1c0,0,0.1,0,0.1,0.1c0,0,0,0,0,0c0.1,0.1,0.2,0.2,0.3,0.4c0.1,0.1,0.1,0.3,0.1,0.4c0,0.3-0.1,0.5-0.3,0.7
				L21,2.3h-1.5l0.7-0.7C20.5,1.4,20.8,1.3,21,1.3z"></path>
			<path style="fill:#00B7FF;" d="M21.1,1.3c0,0-0.1,0-0.1,0C21.1,1.3,21.1,1.3,21.1,1.3z"></path>
			<path style="fill:#00B7FF;" d="M21.2,1.3C21.2,1.3,21.2,1.3,21.2,1.3C21.2,1.3,21.2,1.3,21.2,1.3z"></path>
			<path style="fill:#00B7FF;" d="M21.4,1.3c0,0-0.1,0-0.1,0C21.3,1.3,21.3,1.3,21.4,1.3z"></path>
			<path style="fill:#00B7FF;" d="M21.4,1.4C21.4,1.4,21.4,1.4,21.4,1.4C21.4,1.4,21.4,1.4,21.4,1.4z"></path>
			<path style="fill:#00B7FF;" d="M21.7,1.6C21.7,1.5,21.7,1.5,21.7,1.6C21.7,1.5,21.7,1.5,21.7,1.6z"></path>
			<path style="fill:#00B7FF;" d="M22.1,2.3c0-0.1,0-0.3-0.1-0.4c-0.1-0.1-0.1-0.3-0.3-0.4c0,0,0,0,0,0l14.1,14.1
				c0.2,0.2,0.3,0.5,0.3,0.7V21c0-0.3-0.1-0.5-0.3-0.7l-0.7-0.7v-3.1L21.8,3.1C22,2.9,22.1,2.6,22.1,2.3z"></path>
			<path style="fill:#00B7FF;" d="M19.5,2.3H21l-14,14l2.3,2.3l0,0l0.7,0.7v0c-0.4,0.4-1.1,0.4-1.5,0l-2.3-2.3
				c-0.2-0.2-0.3-0.5-0.3-0.7c0-0.3,0.1-0.5,0.3-0.7L19.5,2.3z"></path>
			<polygon style="fill:#00B7FF;" points="21,2.3 21.8,3.1 8.5,16.4 10.1,18 9.3,18.7 7,16.4 			"></polygon>
			<path style="fill:#00B7FF;" d="M20.3,6.2c0.4-0.4,1.1-0.4,1.5,0l13.3,13.3V21l-14-14l-2.3,2.3L18,10.1c-0.2-0.2-0.3-0.5-0.3-0.7
				c0-0.3,0.1-0.5,0.3-0.7L20.3,6.2z"></path>
			<polygon style="fill:#00B7FF;" points="21.1,7 35.1,21 34.3,21.8 21.1,8.5 19.5,10.1 18.7,9.3 			"></polygon>

				<rect x="18.2" y="9.5" transform="matrix(0.7071 -0.7071 0.7071 0.7071 -1.6425 16.1816)" style="fill:#00B7FF;" width="1.1" height="1.1"></rect>

				<rect x="22.5" y="8.8" transform="matrix(0.7071 -0.7071 0.7071 0.7071 -3.4312 20.5)" style="fill:#00B7FF;" width="1" height="11.2"></rect>

				<rect x="8.8" y="13.9" transform="matrix(0.7071 -0.7071 0.7071 0.7071 -5.9616 14.3926)" style="fill:#00B7FF;" width="11.2" height="1.1"></rect>
			<path style="fill:#00B7FF;" d="M1.6,15.7L15.7,1.6c0.2-0.2,0.5-0.3,0.7-0.3H21c-0.3,0-0.5,0.1-0.7,0.3l-0.7,0.7h-3.1L3.1,15.7
				c-0.3-0.3-0.8-0.4-1.1-0.2C1.8,15.5,1.7,15.6,1.6,15.7C1.6,15.7,1.6,15.7,1.6,15.7z"></path>
			<polygon style="fill:#00B7FF;" points="3.1,15.7 16.4,28.9 18,27.3 18.7,28.1 16.4,30.4 2.3,16.4 			"></polygon>
			<path style="fill:#00B7FF;" d="M1.6,15.7c-0.1,0.1-0.1,0.1-0.1,0.2C1.5,15.8,1.5,15.8,1.6,15.7z"></path>
			<path style="fill:#00B7FF;" d="M1.4,15.9C1.4,15.9,1.4,16,1.4,15.9C1.4,16,1.4,15.9,1.4,15.9z"></path>
			<path style="fill:#00B7FF;" d="M1.3,16.2C1.3,16.2,1.3,16.3,1.3,16.2C1.3,16.3,1.3,16.2,1.3,16.2z"></path>
			<path style="fill:#00B7FF;" d="M1.3,16.3C1.3,16.3,1.3,16.3,1.3,16.3C1.3,16.3,1.3,16.3,1.3,16.3z"></path>
			<path style="fill:#00B7FF;" d="M1.3,16.3C1.3,16.3,1.3,16.3,1.3,16.3c0-0.1,0-0.1,0-0.1c0-0.1,0-0.2,0.1-0.2c0,0,0,0,0,0
				c0,0,0,0,0,0c0-0.1,0.1-0.1,0.1-0.2c0.1-0.1,0.2-0.2,0.4-0.3c0.4-0.2,0.8-0.1,1.1,0.2l-0.7,0.7v1.5l-0.7-0.7
				C1.4,16.9,1.3,16.7,1.3,16.3C1.3,16.4,1.3,16.3,1.3,16.3z"></path>
			<path style="fill:#00B7FF;" d="M2.3,16.4l14,14l2.3-2.3l0.7-0.7c0.2,0.2,0.3,0.5,0.3,0.7c0,0.3-0.1,0.5-0.3,0.7l-2.3,2.3
				c-0.2,0.2-0.5,0.3-0.7,0.3c-0.3,0-0.5-0.1-0.7-0.3L2.3,17.9V16.4z"></path>
			<path style="fill:#00B7FF;" d="M27.3,18c0.4-0.4,1.1-0.4,1.5,0l2.3,2.3c0.2,0.2,0.3,0.5,0.3,0.7c0,0.3-0.1,0.5-0.3,0.7L17.9,35.1
				h-1.5l14-14h0l-2.3-2.3L27.3,18z"></path>

				<rect x="9.6" y="18.2" transform="matrix(0.7071 -0.7071 0.7071 0.7071 -10.2794 12.6036)" style="fill:#00B7FF;" width="1" height="1"></rect>

				<rect x="26.8" y="18.2" transform="matrix(0.7071 -0.7071 0.7071 0.7071 -5.2199 24.8183)" style="fill:#00B7FF;" width="1" height="1.1"></rect>
			<polygon style="fill:#00B7FF;" points="26.6,18.7 27.3,19.5 19.5,27.3 19.5,27.3 18.7,26.6 			"></polygon>

				<rect x="13.9" y="17.4" transform="matrix(0.7085 -0.7057 0.7057 0.7085 -12.0559 16.8692)" style="fill:#00B7FF;" width="1" height="11.2"></rect>
			<polygon style="fill:#00B7FF;" points="28.1,18.7 30.4,21.1 16.4,35.1 15.7,34.3 28.9,21.1 27.3,19.5 			"></polygon>
			<path style="fill:#00B7FF;" d="M35.1,19.5l0.7,0.7c0.2,0.2,0.3,0.5,0.3,0.7c0,0,0,0.1,0,0.1c0,0.1,0,0.1,0,0.1c0,0,0,0,0,0.1
				c0,0.1,0,0.1-0.1,0.1c0,0,0,0,0,0.1c0,0.1-0.1,0.1-0.1,0.2c0,0,0,0,0,0c0,0,0,0,0,0c-0.1,0.1-0.2,0.2-0.3,0.2
				c-0.4,0.2-0.8,0.1-1.1-0.2l0.7-0.7V19.5z"></path>
			<path style="fill:#00B7FF;" d="M36.1,21.1c0,0,0-0.1,0-0.1C36.1,21.1,36.1,21.1,36.1,21.1z"></path>
			<path style="fill:#00B7FF;" d="M36.1,21.3C36.1,21.3,36.1,21.3,36.1,21.3C36.1,21.3,36.1,21.3,36.1,21.3z"></path>
			<path style="fill:#00B7FF;" d="M36,21.5C36,21.5,36,21.5,36,21.5C36,21.5,36,21.5,36,21.5z"></path>
			<path style="fill:#00B7FF;" d="M35.9,21.7c0-0.1,0.1-0.1,0.1-0.2C36,21.6,35.9,21.7,35.9,21.7z"></path>
			<path style="fill:#00B7FF;" d="M35.8,21.7C35.9,21.7,35.9,21.7,35.8,21.7C35.9,21.7,35.9,21.7,35.8,21.7z"></path>
			<path style="fill:#00B7FF;" d="M35.8,21.8L21.8,35.8c-0.2,0.2-0.5,0.3-0.7,0.3l-4.6,0c0.3,0,0.5-0.1,0.7-0.3l0.7-0.7H21
				l13.3-13.3c0.3,0.3,0.8,0.4,1.1,0.2C35.6,21.9,35.7,21.9,35.8,21.8z"></path>
			<polygon style="fill:#00B7FF;" points="18.7,26.6 19.5,27.3 19.5,27.3 18.7,28.1 18,27.3 			"></polygon>
			<path style="fill:#00B7FF;" d="M15.7,34.3l0.7,0.7h1.5l-0.7,0.7c-0.2,0.2-0.5,0.3-0.7,0.3c0,0-0.1,0-0.1,0c0,0,0,0-0.1,0
				c0,0,0,0-0.1,0c0,0-0.1,0-0.1,0c0,0,0,0,0,0c-0.1,0-0.1-0.1-0.2-0.1c0,0-0.1-0.1-0.1-0.1c0,0,0,0,0,0c-0.1-0.1-0.2-0.2-0.3-0.4
				c-0.1-0.1-0.1-0.3-0.1-0.4C15.3,34.8,15.5,34.5,15.7,34.3z"></path>
			<path style="fill:#00B7FF;" d="M15.7,35.8L1.6,21.8c-0.2-0.2-0.3-0.5-0.3-0.7v-4.6c0,0.3,0.1,0.5,0.3,0.7l0.7,0.7V21l13.3,13.3
				c-0.2,0.2-0.3,0.5-0.3,0.7c0,0.1,0,0.3,0.1,0.4C15.5,35.6,15.6,35.8,15.7,35.8C15.7,35.8,15.7,35.8,15.7,35.8z"></path>
			<path style="fill:#00B7FF;" d="M15.7,35.9c0,0,0.1,0.1,0.1,0.1C15.8,35.9,15.7,35.9,15.7,35.9z"></path>
			<path style="fill:#00B7FF;" d="M16,36.1c-0.1,0-0.1-0.1-0.2-0.1C15.9,36,15.9,36,16,36.1z"></path>
			<path style="fill:#00B7FF;" d="M16,36.1c0,0,0.1,0,0.1,0C16.1,36.1,16.1,36.1,16,36.1z"></path>
			<path style="fill:#00B7FF;" d="M16.2,36.1C16.2,36.1,16.2,36.1,16.2,36.1C16.2,36.1,16.2,36.1,16.2,36.1z"></path>
			<path style="fill:#00B7FF;" d="M16.3,36.1c0,0,0.1,0,0.1,0C16.4,36.1,16.3,36.1,16.3,36.1z"></path>
		</g>
	</g>
	<g>
		<path style="fill:#00B7FF;" d="M42.9,43.3c0,0,0.2-0.1,0.4-0.1c0.4,0,0.7,0.2,0.7,1v0.2c0.5-0.8,1.4-1.3,2.4-1.3
			c1.2,0,2.1,0.6,2.5,1.6c0.5-0.9,1.5-1.6,2.7-1.6c1.9,0,3,1.1,3,3.2v4.2c0,0.4-0.2,0.5-0.5,0.5H54c-0.3,0-0.5-0.1-0.5-0.5v-4.1
			c0-1.5-0.7-2.3-2-2.3c-1,0-1.8,0.6-2.3,1.5v4.9c0,0.4-0.2,0.5-0.5,0.5h-0.1c-0.3,0-0.5-0.1-0.5-0.5v-4c0-1.6-0.7-2.4-2-2.4
			c-1,0-1.8,0.6-2.3,1.5v4.9c0,0.4-0.2,0.5-0.5,0.5h-0.1c-0.3,0-0.5-0.1-0.5-0.5V43.3z"></path>
		<path style="fill:#00B7FF;" d="M61.1,46.3h0.2v-0.3c0-1.3-0.8-2-2.2-2c-1.2,0-2,0.6-2.4,1.4c0,0-0.6,0-0.6-0.6
			c0-0.5,1.1-1.8,3.1-1.8c1.9,0,3.1,1.1,3.1,3v4.8c0,0-0.2,0.1-0.4,0.1c-0.4,0-0.7-0.2-0.7-1v-0.3c-0.6,0.9-1.6,1.4-2.9,1.4
			c-1.7,0-2.6-0.9-2.6-2.1C55.7,47.2,57.5,46.4,61.1,46.3z M58.5,50.2c1.6,0,2.8-1,2.8-2.4v-0.7l-0.5,0c-2.6,0.1-4,0.6-4,1.8
			C56.8,49.7,57.4,50.2,58.5,50.2z"></path>
		<path style="fill:#00B7FF;" d="M64,40.1c0,0,0.2-0.1,0.4-0.1c0.4,0,0.7,0.2,0.7,1v5.8l3.1-3.2c0.3-0.3,0.5-0.4,0.7-0.4
			c0.4,0,0.6,0.5,0.5,0.5l-3.2,3.2l3.7,3.6c0,0-0.1,0.5-0.6,0.5c-0.2,0-0.4-0.1-0.7-0.4L65,47v3.5c0,0.4-0.2,0.5-0.5,0.5h-0.1
			c-0.3,0-0.5-0.1-0.5-0.5V40.1z"></path>
		<path style="fill:#00B7FF;" d="M73.9,43.1c2.2,0,3.6,1.5,3.6,3.9V47c0,0.3-0.1,0.4-0.4,0.4h-6c0.1,1.6,1.3,2.8,2.9,2.8
			c1.5,0,2.2-0.6,2.6-1.4c0,0,0.6,0.1,0.6,0.6c0,0.5-1.2,1.7-3.2,1.7c-2.3,0-4-1.6-4-4C70,44.8,71.7,43.1,73.9,43.1z M76.3,46.5
			c-0.1-1.5-1-2.5-2.5-2.5c-1.5,0-2.6,1-2.8,2.5H76.3z"></path>
		<path style="fill:#00B7FF;" d="M81,43.3c0,0,0.2-0.1,0.4-0.1c0.4,0,0.7,0.2,0.7,1v0.2c0.5-0.8,1.4-1.3,2.4-1.3
			c1.2,0,2.1,0.6,2.5,1.6c0.5-0.9,1.5-1.6,2.7-1.6c1.9,0,3,1.1,3,3.2v4.2c0,0.4-0.2,0.5-0.5,0.5h-0.1c-0.3,0-0.5-0.1-0.5-0.5v-4.1
			c0-1.5-0.7-2.3-2-2.3c-1,0-1.8,0.6-2.3,1.5v4.9c0,0.4-0.2,0.5-0.5,0.5h-0.1c-0.3,0-0.5-0.1-0.5-0.5v-4c0-1.6-0.7-2.4-2-2.4
			c-1,0-1.8,0.6-2.3,1.5v4.9c0,0.4-0.2,0.5-0.5,0.5h-0.1c-0.3,0-0.5-0.1-0.5-0.5V43.3z"></path>
		<path style="fill:#00B7FF;" d="M99.2,46.3h0.2v-0.3c0-1.3-0.8-2-2.2-2c-1.2,0-2,0.6-2.4,1.4c0,0-0.6,0-0.6-0.6
			c0-0.5,1.1-1.8,3.1-1.8c1.9,0,3.1,1.1,3.1,3v4.8c0,0-0.2,0.1-0.4,0.1c-0.4,0-0.7-0.2-0.7-1v-0.3c-0.6,0.9-1.6,1.4-2.9,1.4
			c-1.7,0-2.6-0.9-2.6-2.1C93.9,47.2,95.7,46.4,99.2,46.3z M96.6,50.2c1.6,0,2.8-1,2.8-2.4v-0.7l-0.5,0c-2.6,0.1-4,0.6-4,1.8
			C95,49.7,95.6,50.2,96.6,50.2z"></path>
		<path style="fill:#00B7FF;" d="M102.4,44.2h-0.7c-0.4,0-0.5-0.1-0.5-0.4v-0.1c0-0.3,0.1-0.4,0.5-0.4h0.7v-1.3
			c0-0.4,0.2-0.5,0.5-0.5h0.1c0.3,0,0.5,0.1,0.5,0.5v1.3h2c0.4,0,0.5,0.1,0.5,0.4v0.1c0,0.3-0.1,0.4-0.5,0.4h-2v4.4
			c0,1.1,0.3,1.7,1.1,1.7c0.5,0,0.9-0.2,1.2-0.6c0,0,0.4,0.1,0.4,0.5c0,0.4-0.6,1-1.6,1c-1.5,0-2.1-0.9-2.1-2.4V44.2z"></path>
		<path style="fill:#00B7FF;" d="M107.1,40.1c0,0,0.2-0.1,0.4-0.1c0.4,0,0.7,0.2,0.7,1v3.5c0.5-0.8,1.4-1.4,2.6-1.4c2,0,3,1.4,3,3.4
			v4c0,0.4-0.2,0.5-0.5,0.5h-0.1c-0.3,0-0.5-0.1-0.5-0.5v-4c0-1.5-0.8-2.5-2.1-2.5c-1.5,0-2.5,1-2.5,2.6v3.8c0,0.4-0.2,0.5-0.5,0.5
			h-0.1c-0.3,0-0.5-0.1-0.5-0.5V40.1z"></path>
		<path style="fill:#00B7FF;" d="M121,43.1c1.4,0,2.3,0.6,2.8,1.4v-4.3c0,0,0.2-0.1,0.4-0.1c0.4,0,0.7,0.2,0.7,1v9.5
			c0,0.4-0.2,0.5-0.5,0.5h-0.1c-0.3,0-0.5-0.1-0.5-0.5v-0.8c-0.7,0.9-1.6,1.5-2.9,1.5c-2,0-3.6-1.6-3.6-4
			C117.3,44.7,118.9,43.1,121,43.1z M121.1,50.2c1.4,0,2.7-1,2.8-2.5v-1.9c-0.5-1.1-1.4-1.8-2.7-1.8c-1.6,0-2.7,1.3-2.7,3.1
			C118.4,48.9,119.5,50.2,121.1,50.2z"></path>
		<path style="fill:#00B7FF;" d="M126.5,40.6c0-0.5,0.2-0.7,0.7-0.7c0.5,0,0.7,0.2,0.7,0.7c0,0.5-0.2,0.7-0.7,0.7
			C126.8,41.3,126.5,41.1,126.5,40.6z M126.7,43.7c0-0.4,0.2-0.5,0.5-0.5h0.1c0.3,0,0.5,0.1,0.5,0.5v6.8c0,0.4-0.2,0.5-0.5,0.5h-0.1
			c-0.3,0-0.5-0.1-0.5-0.5V43.7z"></path>
		<path style="fill:#00B7FF;" d="M131,50c-0.2-0.2-0.3-0.4-0.3-0.7c0-0.3,0.1-0.5,0.3-0.8c-1.2-0.4-1.9-1.4-1.9-2.6
			c0-1.6,1.3-2.9,3.1-2.9c0.7,0,1.4,0.2,1.9,0.6l0.5-0.9c0.2-0.3,0.4-0.5,0.7-0.5c0.4,0,0.6,0.4,0.6,0.5l-1.3,1.4
			c0.4,0.5,0.6,1.1,0.6,1.7c0,1.6-1.4,2.8-3.2,2.8c-0.1,0-0.3,0-0.4,0c-0.1,0.1-0.1,0.3-0.1,0.4c0,0.5,0.7,0.6,2.1,0.9
			c1.1,0.3,2.3,0.8,2.3,2c0,1.4-1.5,2.3-3.9,2.3c-2.4,0-3.6-0.7-3.6-2.1C128.5,51.1,129.6,50.3,131,50z M132.2,53.5
			c1.8,0,2.8-0.5,2.8-1.4c0-0.9-1.4-1.1-2.7-1.4c-1.5,0.1-2.8,0.6-2.8,1.6C129.5,53,130.4,53.5,132.2,53.5z M134.3,45.9
			c0-1.2-0.8-2-2.1-2c-1.2,0-2,0.8-2,2c0,1.2,0.9,2,2.1,2C133.4,47.9,134.3,47.1,134.3,45.9z"></path>
		<path style="fill:#00B7FF;" d="M136.7,40.6c0-0.5,0.2-0.7,0.7-0.7c0.5,0,0.7,0.2,0.7,0.7c0,0.5-0.2,0.7-0.7,0.7
			C136.9,41.3,136.7,41.1,136.7,40.6z M136.8,43.7c0-0.4,0.2-0.5,0.5-0.5h0.1c0.3,0,0.5,0.1,0.5,0.5v6.8c0,0.4-0.2,0.5-0.5,0.5h-0.1
			c-0.3,0-0.5-0.1-0.5-0.5V43.7z"></path>
		<path style="fill:#00B7FF;" d="M140.2,44.2h-0.7c-0.4,0-0.5-0.1-0.5-0.4v-0.1c0-0.3,0.1-0.4,0.5-0.4h0.7v-1.3
			c0-0.4,0.2-0.5,0.5-0.5h0.1c0.3,0,0.5,0.1,0.5,0.5v1.3h2c0.4,0,0.5,0.1,0.5,0.4v0.1c0,0.3-0.1,0.4-0.5,0.4h-2v4.4
			c0,1.1,0.3,1.7,1.1,1.7c0.5,0,0.9-0.2,1.2-0.6c0,0,0.4,0.1,0.4,0.5c0,0.4-0.6,1-1.6,1c-1.5,0-2.1-0.9-2.1-2.4V44.2z"></path>
		<path style="fill:#00B7FF;" d="M149.7,46.3h0.2v-0.3c0-1.3-0.8-2-2.2-2c-1.2,0-2,0.6-2.4,1.4c0,0-0.6,0-0.6-0.6
			c0-0.5,1.1-1.8,3.1-1.8c1.9,0,3.1,1.1,3.1,3v4.8c0,0-0.2,0.1-0.4,0.1c-0.4,0-0.7-0.2-0.7-1v-0.3c-0.6,0.9-1.6,1.4-2.9,1.4
			c-1.7,0-2.6-0.9-2.6-2.1C144.3,47.2,146.1,46.4,149.7,46.3z M147.1,50.2c1.6,0,2.8-1,2.8-2.4v-0.7l-0.5,0c-2.6,0.1-4,0.6-4,1.8
			C145.4,49.7,146,50.2,147.1,50.2z"></path>
		<path style="fill:#00B7FF;" d="M152.6,40.1c0,0,0.2-0.1,0.4-0.1c0.4,0,0.7,0.2,0.7,1v9.5c0,0.4-0.2,0.5-0.5,0.5h-0.1
			c-0.3,0-0.5-0.1-0.5-0.5V40.1z"></path>
	</g>
</g>
</svg>